<svg xmlns="http://www.w3.org/2000/svg" viewBox="0 0 960 540" role="img" aria-label="SoundCloud">
  <defs>
    <linearGradient id="bg" x1="0" x2="1" y1="0" y2="1">
      <stop offset="0" stop-color="#ff9a3d"/>
      <stop offset="1" stop-color="#f24a1d"/>
    </linearGradient>
    <radialGradient id="glow" cx="30%" cy="20%" r="75%">
      <stop offset="0" stop-color="#fff2c7" stop-opacity=".45"/>
      <stop offset=".52" stop-color="#ff7a2f" stop-opacity=".16"/>
      <stop offset="1" stop-color="#000" stop-opacity="0"/>
    </radialGradient>
  </defs>
  <rect width="960" height="540" fill="url(#bg)"/>
  <rect width="960" height="540" fill="url(#glow)"/>
  <g fill="#fff" transform="translate(168 188)">
    <rect x="0" y="64" width="20" height="96" rx="10" opacity=".72"/>
    <rect x="38" y="42" width="20" height="118" rx="10" opacity=".78"/>
    <rect x="76" y="20" width="20" height="140" rx="10" opacity=".86"/>
    <rect x="114" y="0" width="20" height="160" rx="10"/>
    <path d="M176 160h310c65 0 118-48 118-108S551-56 486-56c-29 0-57 10-79 27-34-58-98-96-172-96-28 0-54 5-79 15v270h20z"/>
  </g>
  <text x="72" y="446" fill="#fff" font-family="Arial, Helvetica, sans-serif" font-size="56" font-weight="800">SoundCloud</text>
  <text x="76" y="486" fill="#fff" opacity=".76" font-family="Arial, Helvetica, sans-serif" font-size="22" font-weight="600">Musik dan audio streaming</text>
</svg>
